<?xml version="1.0" standalone="no"?>
<!DOCTYPE svg PUBLIC "-//W3C//DTD SVG 20010904//EN"
 "http://www.w3.org/TR/2001/REC-SVG-20010904/DTD/svg10.dtd">
<svg version="1.0" xmlns="http://www.w3.org/2000/svg"
 width="607.000000pt" height="302.000000pt" viewBox="0 0 607.000000 302.000000"
 preserveAspectRatio="xMidYMid meet">

<g transform="translate(0.000000,302.000000) scale(0.100000,-0.100000)"
fill="#000000" stroke="none">
<path d="M727 2084 c-154 -34 -264 -89 -367 -181 -76 -69 -127 -147 -164 -253
l-31 -85 -3 -387 c-3 -317 -1 -402 12 -469 39 -205 168 -365 371 -459 106 -49
186 -70 306 -79 384 -30 694 112 818 374 47 99 56 153 56 352 0 169 -1 183
-21 210 -39 53 -42 53 -414 50 l-345 -2 3 -30 c8 -77 53 -141 115 -164 16 -7
109 -11 219 -11 l190 0 -4 -122 c-3 -108 -7 -130 -30 -180 -76 -163 -256 -258
-488 -258 -233 0 -405 91 -487 258 l-38 76 0 416 0 415 32 65 c81 165 258 260
483 260 226 0 412 -95 486 -247 23 -46 29 -75 33 -157 l6 -101 60 1 c121 2
185 65 185 181 -1 238 -183 429 -495 516 -96 26 -389 33 -488 11z"/>
<path d="M4015 2076 c-58 -27 -78 -47 -100 -99 -13 -32 -15 -148 -15 -922 l0
-885 48 0 c81 1 165 54 191 123 8 19 11 314 11 918 l0 889 -42 0 c-24 0 -65
-11 -93 -24z"/>
<path d="M2122 2060 c-64 -39 -62 -4 -62 -925 0 -921 -2 -886 62 -925 32 -19
49 -20 498 -20 375 0 477 3 528 15 210 50 354 215 382 442 27 213 -65 396
-242 477 l-71 33 46 32 c148 101 218 282 185 476 -19 114 -55 190 -125 266
-64 68 -161 121 -257 138 -37 7 -225 11 -485 11 -410 0 -427 -1 -459 -20z
m948 -230 c53 -30 105 -95 122 -153 7 -23 12 -78 12 -122 0 -125 -51 -220
-147 -275 l-52 -30 -342 0 -343 0 0 305 0 306 353 -3 352 -3 45 -25z m50 -826
c96 -45 142 -109 161 -223 11 -72 -2 -175 -31 -230 -28 -55 -91 -108 -151
-125 -43 -13 -116 -16 -416 -16 l-363 0 0 311 0 311 378 -4 c357 -3 379 -4
422 -24z"/>
<path d="M4425 2071 c-40 -17 -59 -49 -59 -100 0 -56 -95 67 818 -1061 255
-316 462 -579 459 -583 -3 -5 -24 12 -45 37 l-40 47 -542 -3 -541 -3 -38 -24
c-43 -27 -75 -81 -84 -146 l-6 -45 763 0 c701 0 764 1 791 17 34 20 54 71 45
116 -4 23 -182 249 -602 767 -701 866 -685 846 -677 853 3 4 24 -14 45 -38
l40 -45 496 0 c461 0 500 2 537 19 22 10 48 28 58 39 24 27 46 88 47 130 l0
32 -722 -1 c-398 0 -732 -4 -743 -8z"/>
</g>
</svg>
